<svg width="134" height="40" viewBox="0 0 134 40" fill="none" xmlns="http://www.w3.org/2000/svg">
<g clip-path="url(#clip0_5_501)">
<path d="M8.07693 1.53845H1.15385C0.847827 1.53845 0.554342 1.66002 0.337954 1.87641C0.121566 2.09279 0 2.38628 0 2.6923L0 28.0769C0 28.7138 0.516923 29.2308 1.15385 29.2308H8.07693C8.38295 29.2308 8.67643 29.1092 8.89282 28.8928C9.10921 28.6764 9.23077 28.3829 9.23077 28.0769V2.6923C9.23077 2.38628 9.10921 2.09279 8.89282 1.87641C8.67643 1.66002 8.38295 1.53845 8.07693 1.53845ZM20.3846 1.53845H13.4615C13.1555 1.53845 12.862 1.66002 12.6457 1.87641C12.4293 2.09279 12.3077 2.38628 12.3077 2.6923V37.3077C12.3077 37.9446 12.8246 38.4615 13.4615 38.4615H20.3846C20.6906 38.4615 20.9841 38.34 21.2005 38.1236C21.4169 37.9072 21.5385 37.6137 21.5385 37.3077V2.6923C21.5385 2.38628 21.4169 2.09279 21.2005 1.87641C20.9841 1.66002 20.6906 1.53845 20.3846 1.53845ZM52.3262 38.7692V28.0892H51.6862C51.349 28.6766 50.9164 29.2038 50.4062 29.6492C49.8462 30.1292 49.1262 30.5292 48.2462 30.8492C47.3923 31.1692 46.3262 31.3292 45.0462 31.3292C43.4463 31.3434 41.8718 30.929 40.4862 30.1292C39.1 29.3292 37.9939 28.1831 37.1662 26.6892C36.34 25.1692 35.9262 23.3431 35.9262 21.2092V20.6092C35.9262 18.4754 36.34 16.6631 37.1662 15.1692C38.02 13.6492 39.14 12.4892 40.5262 11.6892C41.9123 10.8892 43.4185 10.4892 45.0462 10.4892C46.9662 10.4892 48.4323 10.8354 49.4462 11.5292C50.4862 12.2215 51.26 13.0092 51.7662 13.8892H52.4062V11.0492H56.4462V38.7692H52.3262ZM46.2062 27.7292C48.02 27.7292 49.4985 27.1554 50.6462 26.0092C51.7923 24.8631 52.3662 23.2231 52.3662 21.0892V20.7292C52.3662 18.6215 51.78 16.9954 50.6062 15.8492C49.46 14.7031 47.9923 14.1292 46.2062 14.1292C44.4462 14.1292 42.98 14.7031 41.8062 15.8492C40.66 16.9954 40.0862 18.6231 40.0862 20.7292V21.0892C40.0862 23.2231 40.66 24.8631 41.8062 26.0092C42.98 27.1554 44.4462 27.7292 46.2062 27.7292ZM67.2708 31.1292C65.7785 31.1292 64.4446 30.7954 63.2708 30.1292C62.0993 29.4645 61.1418 28.4793 60.5108 27.2892C59.8446 26.0631 59.5108 24.5969 59.5108 22.8892V11.0492H63.6308V22.6092C63.6308 24.3169 64.0585 25.5831 64.9108 26.4092C65.7646 27.2092 66.9508 27.6092 68.4708 27.6092C70.1508 27.6092 71.4985 27.0492 72.5108 25.9292C73.5508 24.7831 74.0708 23.1431 74.0708 21.0092V11.0492H78.1908V30.7692H74.1508V27.8092H73.5108C73.1385 28.6092 72.4708 29.3692 71.5108 30.0892C70.5508 30.7815 69.1385 31.1292 67.2708 31.1292ZM92.8816 31.3292C90.9616 31.3292 89.4816 30.9831 88.4416 30.2892C87.4277 29.5969 86.6677 28.8231 86.1616 27.9692H85.5216V30.7692H81.4816V2.76922H85.6016V13.7292H86.2416C86.5616 13.1954 86.9877 12.6892 87.5216 12.2092C88.0554 11.7015 88.7616 11.2892 89.6416 10.9692C90.5216 10.6492 91.6016 10.4892 92.8816 10.4892C94.5354 10.4892 96.0554 10.8892 97.4416 11.6892C98.8277 12.4892 99.9339 13.6492 100.762 15.1692C101.588 16.6892 102.002 18.5031 102.002 20.6092V21.2092C102.002 23.3431 101.575 25.1692 100.722 26.6892C99.8954 28.1815 98.7877 29.3292 97.4016 30.1292C96.0416 30.9292 94.5354 31.3292 92.8816 31.3292ZM91.6816 27.7292C93.4677 27.7292 94.9354 27.1554 96.0816 26.0092C97.2554 24.8631 97.8416 23.2231 97.8416 21.0892V20.7292C97.8416 18.6215 97.2677 16.9954 96.1216 15.8492C94.9754 14.7031 93.4954 14.1292 91.6816 14.1292C89.9216 14.1292 88.4554 14.7031 87.2816 15.8492C86.1354 16.9954 85.5616 18.6231 85.5616 20.7292V21.0892C85.5616 23.2231 86.1354 24.8631 87.2816 26.0092C88.4554 27.1554 89.9216 27.7292 91.6816 27.7292ZM104.306 30.7692V11.0492H108.426V30.7692H104.306ZM106.386 8.36922C105.586 8.36922 104.906 8.11538 104.346 7.60922C103.812 7.07538 103.546 6.39538 103.546 5.56922C103.546 4.74307 103.812 4.07691 104.346 3.56922C104.617 3.3077 104.936 3.10234 105.286 2.96503C105.636 2.82771 106.01 2.76116 106.386 2.76922C107.214 2.76922 107.894 3.03538 108.426 3.56922C108.96 4.07691 109.226 4.74307 109.226 5.56922C109.226 6.39538 108.96 7.07691 108.426 7.60922C107.892 8.11692 107.214 8.36922 106.386 8.36922ZM120.9 31.3292C119.008 31.3292 117.288 30.9292 115.742 30.1292C114.225 29.3337 112.964 28.1278 112.1 26.6492C111.22 25.1292 110.78 23.3031 110.78 21.1692V20.6492C110.78 18.5154 111.22 16.7031 112.1 15.2092C112.964 13.7307 114.225 12.5248 115.742 11.7292C117.288 10.9031 119.008 10.4892 120.9 10.4892C122.794 10.4892 124.408 10.8354 125.742 11.5292C127.074 12.2215 128.142 13.1431 128.942 14.2892C129.76 15.4161 130.307 16.7164 130.542 18.0892L126.542 18.9292C126.42 18.0823 126.135 17.2671 125.702 16.5292C125.269 15.8032 124.647 15.2086 123.902 14.8092C123.128 14.3831 122.154 14.1692 120.982 14.1692C119.834 14.1692 118.794 14.4354 117.86 14.9692C116.954 15.4769 116.234 16.2231 115.702 17.2092C115.168 18.1692 114.902 19.3431 114.902 20.7292V21.0892C114.902 22.4754 115.168 23.6631 115.702 24.6492C116.234 25.6354 116.954 26.3831 117.86 26.8892C118.794 27.3969 119.834 27.6492 120.982 27.6492C122.714 27.6492 124.034 27.2092 124.94 26.3292C125.848 25.4215 126.422 24.2754 126.66 22.8892L130.66 23.8092C130.342 25.1644 129.758 26.4427 128.94 27.5692C128.14 28.7154 127.074 29.6354 125.74 30.3292C124.408 30.9954 122.792 31.3292 120.9 31.3292Z" fill="white"/>
</g>
<defs>
<clipPath id="clip0_5_501">
<rect width="133.846" height="40" fill="white"/>
</clipPath>
</defs>
</svg>
