<svg width="37" height="63" viewBox="0 0 37 63" fill="none" xmlns="http://www.w3.org/2000/svg">
<path d="M13.9062 0H2.09375C1.57161 0 1.07085 0.207421 0.701633 0.576634C0.332421 0.945846 0.125 1.44661 0.125 1.96875V45.2812C0.125 46.368 1.007 47.25 2.09375 47.25H13.9062C14.4284 47.25 14.9292 47.0426 15.2984 46.6734C15.6676 46.3042 15.875 45.8034 15.875 45.2812V1.96875C15.875 1.44661 15.6676 0.945846 15.2984 0.576634C14.9292 0.207421 14.4284 0 13.9062 0ZM34.9062 0H23.0938C22.5716 0 22.0708 0.207421 21.7016 0.576634C21.3324 0.945846 21.125 1.44661 21.125 1.96875V61.0312C21.125 62.118 22.007 63 23.0938 63H34.9062C35.4284 63 35.9292 62.7926 36.2984 62.4234C36.6676 62.0542 36.875 61.5534 36.875 61.0312V1.96875C36.875 1.44661 36.6676 0.945846 36.2984 0.576634C35.9292 0.207421 35.4284 0 34.9062 0Z" fill="white"/>
</svg>
