<svg width="63" height="63" viewBox="0 0 63 63" fill="none" xmlns="http://www.w3.org/2000/svg">
<path d="M26.9062 0H15.0938C14.5716 0 14.0708 0.207421 13.7016 0.576634C13.3324 0.945846 13.125 1.44661 13.125 1.96875V45.2812C13.125 46.368 14.007 47.25 15.0938 47.25H26.9062C27.4284 47.25 27.9292 47.0426 28.2984 46.6734C28.6676 46.3042 28.875 45.8034 28.875 45.2812V1.96875C28.875 1.44661 28.6676 0.945846 28.2984 0.576634C27.9292 0.207421 27.4284 0 26.9062 0ZM47.9062 0H36.0938C35.5716 0 35.0708 0.207421 34.7016 0.576634C34.3324 0.945846 34.125 1.44661 34.125 1.96875V61.0312C34.125 62.118 35.007 63 36.0938 63H47.9062C48.4284 63 48.9292 62.7926 49.2984 62.4234C49.6676 62.0542 49.875 61.5534 49.875 61.0312V1.96875C49.875 1.44661 49.6676 0.945846 49.2984 0.576634C48.9292 0.207421 48.4284 0 47.9062 0Z" fill="black"/>
</svg>
